<?xml version="1.0" standalone="no"?>
<!DOCTYPE svg PUBLIC "-//W3C//DTD SVG 20010904//EN"
 "http://www.w3.org/TR/2001/REC-SVG-20010904/DTD/svg10.dtd">
<svg version="1.0" xmlns="http://www.w3.org/2000/svg"
 width="512.000000pt" height="512.000000pt" viewBox="0 0 512.000000 512.000000"
 preserveAspectRatio="xMidYMid meet">
<metadata>
Created by potrace 1.14, written by Peter Selinger 2001-2017
</metadata>
<g transform="translate(0.000000,512.000000) scale(0.100000,-0.100000)"
fill="#000000" stroke="none">
<path d="M3215 4968 c-25 -15 -42 -37 -83 -112 -91 -168 -85 -160 -179 -212
-48 -27 -100 -54 -114 -60 -14 -7 -38 -24 -52 -38 -36 -36 -38 -103 -4 -133
19 -17 108 -69 207 -121 47 -25 57 -37 124 -160 71 -128 97 -156 147 -154 50
1 71 24 143 156 l70 127 85 46 c161 87 189 108 197 148 7 42 -8 85 -37 104
-12 7 -70 39 -129 72 -59 32 -112 65 -117 72 -6 6 -27 43 -47 80 -89 164 -95
173 -123 186 -30 14 -63 13 -88 -1z"/>
<path d="M1359 4798 c-202 -26 -350 -140 -399 -305 -7 -24 -16 -43 -19 -43 -3
1 -30 7 -60 13 -119 28 -261 -18 -370 -119 -59 -54 -151 -181 -151 -207 0 -7
-4 -17 -10 -23 -5 -5 -19 -45 -30 -87 -42 -165 -2 -336 98 -422 l26 -23 -38
-42 c-185 -205 -111 -570 156 -773 105 -79 264 -106 368 -63 11 5 19 -8 32
-52 54 -183 251 -302 496 -300 234 2 417 114 477 292 l21 62 46 -12 c49 -12
143 -12 193 1 70 18 177 87 234 152 111 125 165 261 165 419 0 97 -1 105 -37
177 -20 41 -53 89 -72 105 l-34 31 22 18 c71 57 118 162 123 274 4 99 -16 183
-67 288 -55 111 -163 223 -264 272 -63 31 -77 34 -160 34 -49 0 -104 -4 -121
-8 -30 -8 -30 -7 -47 46 -9 29 -31 75 -48 100 -95 144 -313 224 -530 195z"/>
<path d="M4229 4225 c-23 -12 -65 -81 -170 -280 -15 -27 -40 -56 -55 -65 -271
-148 -292 -161 -307 -191 -24 -51 2 -112 62 -142 14 -7 53 -28 86 -46 208
-116 179 -88 275 -266 24 -44 49 -91 57 -106 34 -67 102 -91 156 -56 15 10 59
79 109 171 l83 154 80 43 c44 24 111 61 150 82 84 45 115 77 115 119 0 57 -25
79 -186 167 -151 81 -155 84 -189 143 -19 32 -35 61 -35 64 0 3 -25 50 -57
104 -44 78 -63 101 -86 110 -39 13 -56 12 -88 -5z"/>
<path d="M3600 3084 c-178 -29 -320 -114 -400 -241 -31 -48 -64 -143 -62 -175
1 -22 -10 -22 -68 -2 -59 21 -171 24 -240 6 -165 -43 -323 -185 -413 -372 -49
-101 -68 -177 -72 -285 -6 -148 33 -254 126 -347 l57 -58 -55 -57 c-55 -56
-108 -150 -121 -215 -4 -18 -7 -78 -6 -133 1 -84 6 -115 32 -191 117 -348 432
-554 702 -460 57 20 59 20 58 -1 -1 -10 5 -38 12 -63 46 -168 193 -296 395
-345 162 -40 367 -20 510 49 78 39 164 114 207 181 28 45 61 136 61 171 0 28
2 29 58 8 266 -95 585 113 701 459 33 99 45 237 27 317 -18 80 -64 165 -123
223 l-55 56 57 58 c97 98 134 202 127 358 -11 279 -221 569 -465 641 -96 29
-262 19 -306 -17 -8 -7 -17 11 -29 61 -47 190 -200 323 -430 370 -82 17 -196
19 -285 4z"/>
<path d="M714 2481 c-23 -10 -51 -45 -76 -96 -8 -16 -25 -48 -37 -70 -13 -22
-32 -56 -43 -76 -11 -21 -32 -43 -47 -50 -14 -8 -57 -32 -96 -54 -38 -22 -83
-47 -100 -55 -16 -8 -38 -30 -49 -49 -18 -31 -18 -37 -5 -74 13 -37 23 -45
139 -109 69 -37 132 -77 141 -88 9 -10 44 -71 79 -133 63 -116 85 -139 135
-139 50 0 73 23 135 134 33 60 60 113 60 118 0 10 58 60 69 60 10 0 179 94
203 113 22 18 38 60 33 88 -10 52 -46 79 -237 176 -41 21 -53 36 -94 111 -26
48 -56 103 -67 122 -10 19 -26 43 -36 53 -20 21 -77 30 -107 18z"/>
<path d="M318 1130 c-67 -6 -95 -28 -107 -82 -10 -45 16 -92 60 -107 19 -7
267 -10 720 -10 754 0 733 -2 763 57 22 44 6 99 -38 127 -20 13 -113 16 -682
18 -362 1 -685 0 -716 -3z"/>
<path d="M140 612 c-82 -6 -101 -13 -120 -45 -24 -39 -25 -59 -4 -103 25 -52
53 -55 400 -52 l306 3 30 34 c26 29 30 39 25 75 -8 61 -44 86 -127 86 -36 1
-157 2 -270 3 -113 1 -221 1 -240 -1z"/>
<path d="M1738 610 c-194 -5 -198 -5 -222 -30 -46 -46 -34 -125 22 -154 41
-21 618 -22 668 -1 65 27 78 109 25 159 -26 25 -32 26 -162 28 -73 2 -223 1
-331 -2z"/>
<path d="M1073 592 c-72 -56 -39 -169 52 -177 48 -5 105 42 105 87 0 36 -24
84 -49 98 -30 15 -83 12 -108 -8z"/>
</g>
</svg>
